<svg width="41" height="40" viewBox="0 0 41 40" fill="none" xmlns="http://www.w3.org/2000/svg">
<path d="M4.7481 12.4391L10.1208 10.1365L11.5378 6.00366L7.37541 6.50551L2.35696 10.0775L1.17615 13.5609L4.7481 12.4391Z" fill="#7CFFF9"/>
<path d="M4.74805 12.4391L5.51558 16.69L12.9252 12.6752L10.1207 10.1365L4.74805 12.4391Z" fill="#00A5EC"/>
<path d="M10.1208 10.1365L11.5378 6.00366L14.8146 7.12543L12.9253 12.6752L10.1208 10.1365Z" fill="#00C3FF"/>
<path d="M1.17615 13.5609L0.142944 16.631L5.51564 16.69L4.74811 12.4391L1.17615 13.5609Z" fill="#00DCFF"/>
<path d="M5.51562 16.69L13.1023 21L12.9252 12.6752L5.51562 16.69Z" fill="#105BC4"/>
<path d="M0.142944 16.631L13.1023 21L5.51564 16.69L0.142944 16.631Z" fill="#2181E5"/>
<path d="M14.8146 7.12543L13.1024 21L12.9253 12.6752L14.8146 7.12543Z" fill="#00AFFF"/>
<path d="M1.17615 13.5609L11.5378 6.00366L7.37541 6.50551L2.35696 10.0775L1.17615 13.5609Z" fill="#B6FFF9"/>
<path d="M17.4714 9.60516L23.1097 9.16236L25.6485 5.82657L21.7223 5L16.0544 6.68266L13.8994 9.5166L17.4714 9.60516Z" fill="#7CFFF9"/>
<path d="M17.4714 9.60516L16.881 13.7085L24.881 12.3505L23.1098 9.16235L17.4714 9.60516Z" fill="#00A5EC"/>
<path d="M23.1097 9.16233L25.6485 5.82654L28.3053 7.86344L24.881 12.3505L23.1097 9.16233Z" fill="#00DBFF"/>
<path d="M13.8994 9.5166L12.0101 11.9963L16.881 13.7085L17.4714 9.60516L13.8994 9.5166Z" fill="#00DCFF"/>
<path d="M16.881 13.7085L22.4898 19.9963L24.881 12.3505L16.881 13.7085Z" fill="#1070C4"/>
<path d="M12.0101 11.9963L22.4898 19.9963L16.881 13.7085L12.0101 11.9963Z" fill="#2181E5"/>
<path d="M28.3054 7.86346L22.4899 19.9963L24.881 12.3505L28.3054 7.86346Z" fill="#00AFFF"/>
<path d="M13.8994 9.5166L25.6485 5.82657L21.7223 5L16.0544 6.68266L13.8994 9.5166Z" fill="#B6FFF9"/>
<path d="M29.9584 9.01477L33.7961 12.5572L37.6632 12.1734L35.7444 9.01477L31.0507 6.23987L27.7739 6.56459L29.9584 9.01477Z" fill="#7CFFF9"/>
<path d="M29.9585 9.01477L26.8293 11.1993L32.7629 15.7454L33.7961 12.5572L29.9585 9.01477Z" fill="#00A5EC"/>
<path d="M33.7961 12.5572L37.6633 12.1735L37.9585 15.2436L32.7629 15.7454L33.7961 12.5572Z" fill="#00DBFF"/>
<path d="M27.774 6.56458L24.9105 6.83026L26.8293 11.1993L29.9585 9.01476L27.774 6.56458Z" fill="#00C4FF"/>
<path d="M26.8293 11.1993L26.0913 18.9336L32.7629 15.7454L26.8293 11.1993Z" fill="#105BC4"/>
<path d="M24.9105 6.83026L26.0913 18.9336L26.8293 11.1993L24.9105 6.83026Z" fill="#2181E5"/>
<path d="M37.9585 15.2435L26.0913 18.9336L32.7629 15.7454L37.9585 15.2435Z" fill="#00AFFF"/>
<path d="M27.7739 6.56459L37.6632 12.1734L35.7444 9.01477L31.0507 6.23987L27.7739 6.56459Z" fill="#B6FFF9"/>
<path d="M24.4086 15.0959L17.5894 17.3395L12.9252 14.6827L17.1466 11.7897L24.6742 10.9926L28.6004 13.2362L24.4086 15.0959Z" fill="#7CFFF9"/>
<path d="M24.4087 15.0959L27.1245 19.6716L17.0581 21.9742L17.5895 17.3395L24.4087 15.0959Z" fill="#00A5EC"/>
<path d="M17.5895 17.3395L12.9253 14.6827L10.7998 18.3727L17.0581 21.9742L17.5895 17.3395Z" fill="#00DBFF"/>
<path d="M28.6004 13.2361L32.0248 15.214L27.1244 19.6716L24.4086 15.0959L28.6004 13.2361Z" fill="#00DCFF"/>
<path d="M27.1245 19.6716L23.6411 29.797L17.0581 21.9742L27.1245 19.6716Z" fill="#1070C4"/>
<path d="M32.0249 15.214L23.6411 29.797L27.1245 19.6716L32.0249 15.214Z" fill="#2181E5"/>
<path d="M10.7998 18.3727L23.6411 29.797L17.0581 21.9742L10.7998 18.3727Z" fill="#00AFFF"/>
<path d="M28.6004 13.2362L12.9252 14.6827L17.1466 11.7897L24.6742 10.9926L28.6004 13.2362Z" fill="#B6FFF9"/>
<path d="M4.92528 23.4207L10.2094 18.6679V13.3542L5.63377 15.5387L1.26477 21.5904V26.0775L4.92528 23.4207Z" fill="#7CFFF9"/>
<path d="M4.92529 23.4207L7.46404 27.9963L14.4308 20.4982L10.2094 18.6679L4.92529 23.4207Z" fill="#00A5EC"/>
<path d="M10.2094 18.6679V13.3542H14.4307V20.4982L10.2094 18.6679Z" fill="#00DBFF"/>
<path d="M1.26477 26.0775V30.0037L7.46403 27.9963L4.92528 23.4207L1.26477 26.0775Z" fill="#00DCFF"/>
<path d="M7.46399 27.9963L17.9142 30.0037L14.4308 20.4982L7.46399 27.9963Z" fill="#105BC4"/>
<path d="M1.26477 30.0037H17.9142L7.46403 27.9963L1.26477 30.0037Z" fill="#2181E5"/>
<path d="M14.4308 13.3542L17.9142 30.0037L14.4308 20.4982V13.3542Z" fill="#00AFFF"/>
<path d="M1.26477 26.0775L10.2094 13.3542L5.63377 15.5387L1.26477 21.5904V26.0775Z" fill="#B6FFF9"/>
<path d="M36.4824 22.2103L31.1687 17.4576V12.1439L35.7443 14.3579L40.1429 20.3801V24.8967L36.4824 22.2103Z" fill="#7CFFF9"/>
<path d="M36.4825 22.2103L33.9142 26.786L26.9769 19.2878L31.1688 17.4576L36.4825 22.2103Z" fill="#00A5EC"/>
<path d="M31.1688 17.4576V12.1439H26.9769V19.2878L31.1688 17.4576Z" fill="#00DBFF"/>
<path d="M40.143 24.8967V28.8229L33.9142 26.786L36.4825 22.2103L40.143 24.8967Z" fill="#00DCFF"/>
<path d="M33.9142 26.786L23.4935 28.8229L26.9769 19.2878L33.9142 26.786Z" fill="#1070C4"/>
<path d="M40.143 28.8228H23.4935L33.9142 26.7859L40.143 28.8228Z" fill="#2181E5"/>
<path d="M26.9769 12.1439L23.4935 28.8229L26.9769 19.2878V12.1439Z" fill="#00AFFF"/>
<path d="M40.1429 24.8967L31.1687 12.1439L35.7443 14.3579L40.1429 20.3801V24.8967Z" fill="#B6FFF9"/>
<path d="M22.0175 24.6015L20.571 30.1808L15.4344 32.0406L11.7739 28.321L13.9584 21.1181L19.4787 19.2878L22.0175 24.6015Z" fill="#B6FFF9"/>
<path d="M22.0175 24.6014H25.5009L23.7592 32.6605L20.571 30.1808L22.0175 24.6014Z" fill="#00A5EC"/>
<path d="M23.7592 32.6605L15.2573 34.9336L15.4344 32.0406L20.571 30.1808L23.7592 32.6605Z" fill="#00DCFF"/>
<path d="M11.7739 28.321L15.2573 34.9336L15.4344 32.0406L11.7739 28.321Z" fill="#00A5EC"/>
<path d="M19.4788 19.2878L22.0175 18.4612L25.5009 24.6015H22.0175L19.4788 19.2878Z" fill="#00DBFF"/>
<path d="M23.7592 32.6605L27.7149 29.2656L25.5009 24.6014L23.7592 32.6605Z" fill="#105BC4"/>
<path d="M20.571 30.1808L13.9584 21.1181L11.7739 28.3211L15.4344 32.0406L20.571 30.1808Z" fill="#7CFFF9"/>
<path d="M4.92529 23.4207C5.3681 25.1328 6.87363 27.4059 7.49355 27.9963C7.31643 26.5793 4.92529 23.4207 4.92529 23.4207Z" fill="#7CFFF9"/>
<path d="M31.1688 17.4576C29.8404 17.5166 27.6264 18.786 26.9474 19.2878C28.3939 19.1698 31.1688 17.4576 31.1688 17.4576Z" fill="#7CFFF9"/>
<path d="M36.4825 22.2103C36.1873 23.7159 33.9142 26.786 33.9142 26.786C34.2389 25.0443 36.4825 22.2103 36.4825 22.2103Z" fill="#7CFFF9"/>
</svg>
