<svg width="41" height="40" viewBox="0 0 41 40" fill="none" xmlns="http://www.w3.org/2000/svg">
<path d="M25.8776 12.7667L21.8667 12.2756L20.0931 8.89222L22.3032 6L27.5147 6.81855L29.3155 10.4748L25.8776 12.7667Z" fill="#B6FFF9"/>
<path d="M25.8776 12.7667L26.2323 15.1678L20.4751 14.7312L21.8666 12.2756L25.8776 12.7667Z" fill="#00A5EC"/>
<path d="M20.4751 14.7312L18.0468 9.05592L20.0931 8.89221L21.8667 12.2756L20.4751 14.7312Z" fill="#00DCFF"/>
<path d="M22.3033 6L18.0468 9.05594L20.0932 8.89222L22.3033 6Z" fill="#00A5EC"/>
<path d="M29.3155 10.4747L30.1341 12.1664L26.2323 15.1678L25.8776 12.7667L29.3155 10.4747Z" fill="#00DBFF"/>
<path d="M20.4751 14.7313L23.2036 17.1324L26.2323 15.1678L20.4751 14.7313Z" fill="#105BC4"/>
<path d="M21.8667 12.2756L27.5147 6.81855L22.3032 6L20.0931 8.89222L21.8667 12.2756Z" fill="#7CFFF9"/>
<path d="M5.71393 24.281L10.2433 19.6971L10.6253 14.8404L6.25963 16.5321L1.81216 21.7708L0.857178 26.0546L5.71393 24.281Z" fill="#FF8EDC"/>
<path d="M5.71393 24.281L7.07818 28.0737L13.3538 21.3343L10.2433 19.6971L5.71393 24.281Z" fill="#BB2876"/>
<path d="M10.2432 19.6971L10.6252 14.8404L14.4997 15.1132L13.9813 21.689L10.2432 19.6971Z" fill="#FF62AA"/>
<path d="M0.857178 26.0546L1.21188 29.4925L7.07819 28.0737L5.71393 24.2811L0.857178 26.0546Z" fill="#FF62AA"/>
<path d="M7.07819 28.0737L16.5188 30.6657L13.3538 21.3342L7.07819 28.0737Z" fill="#722876"/>
<path d="M1.21191 29.4925L16.5189 30.6658L7.07822 28.0737L1.21191 29.4925Z" fill="#BA4EA2"/>
<path d="M14.4997 15.1132L16.5188 30.6657L13.3538 21.3342L14.4997 15.1132Z" fill="#BA4EA2"/>
<path d="M0.857178 26.0546L10.6253 14.8404L6.25963 16.5321L1.81216 21.7708L0.857178 26.0546Z" fill="#FFC3DC"/>
<path d="M24.95 14.8677L31.0073 17.105L35.5912 15.4406L32.2624 12.1937L25.6322 10.2838L21.3484 11.2114L24.95 14.8677Z" fill="#FF8EDC"/>
<path d="M24.9501 14.8676L22.0579 17.678L30.7891 20.5975L31.0074 17.105L24.9501 14.8676Z" fill="#BB2876"/>
<path d="M31.0074 17.105L35.5913 15.4406L36.9282 19.0968L30.7618 21.3342L31.0074 17.105Z" fill="#FF62AA"/>
<path d="M21.3484 11.2114L18.347 12.9304L22.0578 17.678L24.9501 14.8676L21.3484 11.2114Z" fill="#FF62AA"/>
<path d="M22.0579 17.678L23.6131 27.3097L30.7891 20.5975L22.0579 17.678Z" fill="#722876"/>
<path d="M18.347 12.9304L23.6131 27.3097L22.0578 17.678L18.347 12.9304Z" fill="#BA4EA2"/>
<path d="M36.9282 19.0969L23.6131 27.3097L30.7891 20.5975L36.9282 19.0969Z" fill="#BA4EA2"/>
<path d="M21.3484 11.2114L35.5912 15.4406L32.2624 12.1937L25.6322 10.2838L21.3484 11.2114Z" fill="#FFC3DC"/>
<path d="M8.93343 11.3479L13.4628 10.0382L15.4546 7.06413L12.0712 6.60028L7.35089 8.34653L5.22266 10.7749L8.93343 11.3479Z" fill="#FF8EDC"/>
<path d="M8.93346 11.3479L8.4696 14.2674L14.8816 12.1937L13.4628 10.0382L8.93346 11.3479Z" fill="#BB2876"/>
<path d="M13.4628 10.0382L15.4546 7.06415L17.8011 8.6194L15.1545 12.6303L13.4628 10.0382Z" fill="#FF62AA"/>
<path d="M5.22269 10.7749L4.21313 13.0941L8.46961 14.2674L8.93346 11.3479L5.22269 10.7749Z" fill="#FF62AA"/>
<path d="M8.4696 14.2674L13.5719 19.2606L14.8816 12.1937L8.4696 14.2674Z" fill="#722876"/>
<path d="M4.21313 13.0941L13.5719 19.2606L8.46961 14.2674L4.21313 13.0941Z" fill="#BA4EA2"/>
<path d="M17.8012 8.61938L13.572 19.2606L14.8816 12.1937L17.8012 8.61938Z" fill="#BA4EA2"/>
<path d="M5.22266 10.7749L15.4546 7.06413L12.0712 6.60028L7.35089 8.34653L5.22266 10.7749Z" fill="#FFC3DC"/>
<path d="M37.4739 23.5716L32.5899 19.1787V14.2674L36.8191 16.3138L40.8573 21.8799V26.0546L37.4739 23.5716Z" fill="#7CFFF9"/>
<path d="M37.4739 23.5716L35.1274 27.8008L28.6881 20.8704L32.5899 19.1787L37.4739 23.5716Z" fill="#00A5EC"/>
<path d="M32.5899 19.1787V14.2674H28.6881V20.8704L32.5899 19.1787Z" fill="#00DBFF"/>
<path d="M40.8573 26.0546V29.6562L35.1274 27.8009L37.474 23.5717L40.8573 26.0546Z" fill="#00DCFF"/>
<path d="M35.1274 27.8008L25.4685 29.6562L28.6882 20.8704L35.1274 27.8008Z" fill="#1070C4"/>
<path d="M40.8573 29.6562H25.4685L35.1274 27.8008L40.8573 29.6562Z" fill="#2181E5"/>
<path d="M28.688 14.2674L25.4684 29.6562L28.688 20.8704V14.2674Z" fill="#00AFFF"/>
<path d="M40.8573 26.0546L32.5899 14.2674L36.8191 16.3138L40.8573 21.8799V26.0546Z" fill="#B6FFF9"/>
<path d="M17.9649 13.5307L12.5352 17.2688L7.76031 16.0955L10.7344 12.4666L17.1191 9.84723L21.1573 10.8295L17.9649 13.5307Z" fill="#7CFFF9"/>
<path d="M17.9649 13.5307L21.512 16.8322L13.2446 21.4434L12.5352 17.2688L17.9649 13.5307Z" fill="#00A5EC"/>
<path d="M12.5352 17.2688L7.76034 16.0955L6.83264 19.8882L13.2446 21.4434L12.5352 17.2688Z" fill="#00DBFF"/>
<path d="M21.1574 10.8295L24.6772 11.7027L21.5121 16.8323L17.965 13.5308L21.1574 10.8295Z" fill="#00DCFF"/>
<path d="M21.5121 16.8322L21.021 26.6549L13.2447 21.4434L21.5121 16.8322Z" fill="#1070C4"/>
<path d="M24.6771 11.7026L21.0209 26.6549L21.5121 16.8322L24.6771 11.7026Z" fill="#2181E5"/>
<path d="M6.83264 19.8882L21.0209 26.6549L13.2446 21.4434L6.83264 19.8882Z" fill="#00AFFF"/>
<path d="M21.1573 10.8295L7.76031 16.0955L10.7344 12.4666L17.1191 9.84723L21.1573 10.8295Z" fill="#B6FFF9"/>
<path d="M23.9677 19.779L28.6881 21.8254L32.4261 20.6794L29.9159 17.9236L24.7044 16.1228L21.2392 16.6685L23.9677 19.779Z" fill="#FF8EDC"/>
<path d="M23.9677 19.7791L21.5394 21.88L28.3879 24.6085L28.6881 21.8254L23.9677 19.7791Z" fill="#BB2876"/>
<path d="M28.6881 21.8254L32.4261 20.6794L33.3266 23.6535L28.3061 25.1815L28.6881 21.8254Z" fill="#FF62AA"/>
<path d="M21.2392 16.6685L18.7836 17.9509L21.5394 21.88L23.9677 19.779L21.2392 16.6685Z" fill="#FF62AA"/>
<path d="M21.5394 21.88L22.3579 29.6563L28.3879 24.6085L21.5394 21.88Z" fill="#722876"/>
<path d="M18.7836 17.9509L22.3579 29.6563L21.5394 21.88L18.7836 17.9509Z" fill="#BA4EA2"/>
<path d="M33.3265 23.6535L22.3579 29.6562L28.3879 24.6085L33.3265 23.6535Z" fill="#BA4EA2"/>
<path d="M21.2392 16.6685L32.4261 20.6794L29.9159 17.9236L24.7044 16.1228L21.2392 16.6685Z" fill="#FFC3DC"/>
<path d="M21.0481 24.7176L19.6838 29.8745L14.9362 31.5662L11.5529 28.1282L13.5992 21.498L18.6743 19.8063L21.0481 24.7176Z" fill="#B6FFF9"/>
<path d="M21.0481 24.7176H24.2404L22.6579 32.1664L19.6838 29.8745L21.0481 24.7176Z" fill="#00A5EC"/>
<path d="M22.6579 32.1665L14.7725 34.2674L14.9362 31.5662L19.6838 29.8745L22.6579 32.1665Z" fill="#00DCFF"/>
<path d="M11.5529 28.1282L14.7725 34.2674L14.9362 31.5662L11.5529 28.1282Z" fill="#00A5EC"/>
<path d="M18.6743 19.8063L21.0481 19.0423L24.2405 24.7176H21.0481L18.6743 19.8063Z" fill="#00DBFF"/>
<path d="M22.6579 32.1664L26.2868 29.0286L24.2404 24.7176L22.6579 32.1664Z" fill="#105BC4"/>
<path d="M19.6838 29.8745L13.5992 21.4979L11.5529 28.1282L14.9362 31.5661L19.6838 29.8745Z" fill="#7CFFF9"/>
<path d="M21.0482 24.7176C21.0482 24.7176 22.6307 24.9905 24.2678 24.7176C23.1491 24.472 21.0482 24.7176 21.0482 24.7176Z" fill="#7CFFF9"/>
<path d="M37.4738 23.5717C36.1096 25.0996 35.1 27.8009 35.1 27.8009C36.7917 25.618 37.4738 23.5717 37.4738 23.5717Z" fill="#7CFFF9"/>
<path d="M28.6881 21.8254C28.2242 23.2169 28.3606 24.6085 28.3606 24.6085C28.8245 23.3261 28.6881 21.8254 28.6881 21.8254Z" fill="#FFC3DC"/>
<path d="M5.71393 24.2811C5.85035 26.0546 7.07818 28.0737 7.07818 28.0737C6.83262 25.9455 5.71393 24.2811 5.71393 24.2811Z" fill="#FFC3DC"/>
</svg>
