<svg width="41" height="40" viewBox="0 0 41 40" fill="none" xmlns="http://www.w3.org/2000/svg">
<path d="M3.64465 17.0413L6.03442 35.192L23.9007 37.2689L24.1567 21.0242L3.64465 17.0413Z" fill="#BB2876"/>
<path d="M23.9006 37.2689L36.9874 27.6814L38.353 13.0868L24.1567 21.0242L23.9006 37.2689Z" fill="#822863"/>
<path d="M14.4839 4.5235L0.714355 11.4367L25.4654 16.2447L40.1738 6.88481L14.4839 4.5235ZM4.66881 10.8108L14.8253 5.37698L37.215 7.62449L25.124 14.68L4.66881 10.8108Z" fill="#FFB0DC"/>
<path d="M24.1567 21.0242L23.9006 37.2688L24.9248 36.4153L24.1567 21.0242Z" fill="#FFC3DC"/>
<path d="M4.6687 30.1281L24.4127 34.3386V39.2034L5.12392 34.9929L4.6687 30.1281Z" fill="#FFB0DC"/>
<path d="M24.4129 34.3385L38.3532 24.1821V28.5917L24.4129 39.2034V34.3385Z" fill="#BB2876"/>
<path d="M24.4129 34.3385L38.3532 24.1821H37.3005L24.4129 33.4282V34.3385Z" fill="#F37494"/>
<path d="M25.4653 33.6273L5.29461 29.5875L4.6687 30.128L24.4127 34.3385L25.4653 33.6273Z" fill="#FFDDFF"/>
<path d="M25.4656 33.6273V38.4068L24.4129 39.2034V34.3386L25.4656 33.6273Z" fill="#D88DC9"/>
<path d="M18.2108 3.89754L15.0529 5.17777L13.0045 4.01134L14.996 2.47506L18.4384 1.87762L20.1738 2.87336L18.2108 3.89754Z" fill="#7CFFF9"/>
<path d="M18.2107 3.89758L19.3202 6.03129L14.6829 7.42532L15.0527 5.17781L18.2107 3.89758Z" fill="#00A5EC"/>
<path d="M15.0528 5.17778L13.0044 4.01135L11.9233 5.86057L14.683 7.42529L15.0528 5.17778Z" fill="#00DBFF"/>
<path d="M20.1737 2.87338L21.6816 3.75532L19.3203 6.03128L18.2108 3.89756L20.1737 2.87338Z" fill="#00DCFF"/>
<path d="M19.3202 6.03125L17.471 11.0668L14.6829 7.42528L19.3202 6.03125Z" fill="#1070C4"/>
<path d="M21.6817 3.75531L17.4711 11.0668L19.3203 6.03127L21.6817 3.75531Z" fill="#2181E5"/>
<path d="M11.9233 5.86053L17.471 11.0668L14.683 7.42526L11.9233 5.86053Z" fill="#00AFFF"/>
<path d="M20.1738 2.87336L13.0045 4.01134L14.996 2.47506L18.4384 1.87762L20.1738 2.87336Z" fill="#B6FFF9"/>
<path d="M7.0586 7.96586L10.0458 5.2916V2.33286L7.48535 3.55618L5.01025 6.94167V9.47368L7.0586 7.96586Z" fill="#7CFFF9"/>
<path d="M7.05859 7.96594L8.50951 10.5264L12.4071 6.31587L10.0458 5.29169L7.05859 7.96594Z" fill="#00A5EC"/>
<path d="M10.0458 5.29163V2.33289H12.4071V6.31582L10.0458 5.29163Z" fill="#00DBFF"/>
<path d="M5.01025 9.47377V11.6644L8.50952 10.5264L7.0586 7.96594L5.01025 9.47377Z" fill="#00DCFF"/>
<path d="M8.5094 10.5263L14.37 11.6643L12.407 6.3158L8.5094 10.5263Z" fill="#105BC4"/>
<path d="M5.01025 11.6643H14.3701L8.50952 10.5264L5.01025 11.6643Z" fill="#2181E5"/>
<path d="M12.407 2.33289L14.37 11.6643L12.407 6.31582V2.33289Z" fill="#00AFFF"/>
<path d="M5.01025 9.47368L10.0458 2.33286L7.48535 3.55618L5.01025 6.94167V9.47368Z" fill="#B6FFF9"/>
<path d="M26.4327 3.61309L22.5351 2.8165L21.0273 0.227596L23.8722 0L27.7129 1.70697L28.9647 3.89758L26.4327 3.61309Z" fill="#7CFFF9"/>
<path d="M26.4327 3.61311L26.4896 6.57186L20.9988 4.86489L22.5351 2.81653L26.4327 3.61311Z" fill="#00A5EC"/>
<path d="M22.5351 2.8165L21.0272 0.2276L19.0073 1.39403L20.9988 4.86487L22.5351 2.8165Z" fill="#00DBFF"/>
<path d="M28.9647 3.89759L30.0742 5.80371L26.4896 6.57185L26.4327 3.6131L28.9647 3.89759Z" fill="#00DCFF"/>
<path d="M26.4896 6.57184L21.9661 10.4694L20.9988 4.86487L26.4896 6.57184Z" fill="#1070C4"/>
<path d="M30.0742 5.80371L21.9661 10.4694L26.4895 6.57185L30.0742 5.80371Z" fill="#2181E5"/>
<path d="M19.0073 1.39404L21.9661 10.4694L20.9988 4.86488L19.0073 1.39404Z" fill="#00AFFF"/>
<path d="M28.9647 3.89758L21.0273 0.227596L23.8722 0L27.7129 1.70697L28.9647 3.89758Z" fill="#B6FFF9"/>
<path d="M16.1341 9.95728L15.3091 13.1152L12.4357 14.1394L10.3873 12.0625L11.6106 8.02272L14.6832 6.99854L16.1341 9.95728Z" fill="#FF8EDC"/>
<path d="M16.1339 9.95734H18.097L17.1012 14.4808L15.3089 13.1152L16.1339 9.95734Z" fill="#BB2876"/>
<path d="M17.1013 14.4807L12.3218 15.761L12.4356 14.1394L15.309 13.1152L17.1013 14.4807Z" fill="#00DCFF"/>
<path d="M10.3873 12.0626L12.3219 15.7611L12.4357 14.1394L10.3873 12.0626Z" fill="#00A5EC"/>
<path d="M14.683 6.99853L16.1339 6.54333L18.0969 9.95727H16.1339L14.683 6.99853Z" fill="#FF62AA"/>
<path d="M17.1013 14.4808L19.3203 12.6031L18.097 9.95734L17.1013 14.4808Z" fill="#722876"/>
<path d="M15.3091 13.1152L11.6106 8.02277L10.3873 12.0626L12.4357 14.1394L15.3091 13.1152Z" fill="#FFC3DC"/>
<path d="M9.76107 34.1963L8.93602 37.3258L6.06263 38.3499L4.01428 36.2731L5.23759 32.2333L8.31015 31.2091L9.76107 34.1963Z" fill="#FF8EDC"/>
<path d="M9.7612 34.1963H11.6958L10.7285 38.6913L8.93616 37.3257L9.7612 34.1963Z" fill="#BB2876"/>
<path d="M10.7285 38.6913L5.94897 40L6.06278 38.3499L8.93617 37.3257L10.7285 38.6913Z" fill="#FF62AA"/>
<path d="M4.01428 36.2731L5.94883 40L6.06263 38.3499L4.01428 36.2731Z" fill="#BB2876"/>
<path d="M8.31018 31.2091L9.7611 30.7539L11.6957 34.1963H9.7611L8.31018 31.2091Z" fill="#FF62AA"/>
<path d="M10.7285 38.6913L12.9475 36.8136L11.6957 34.1963L10.7285 38.6913Z" fill="#722876"/>
<path d="M8.93602 37.3257L5.23759 32.2333L4.01428 36.2731L6.06263 38.3499L8.93602 37.3257Z" fill="#FFC3DC"/>
<path d="M21.0841 9.8151L23.9574 12.7454L27.7697 12.0626L28.7085 8.44952L24.8109 4.80798L20.7711 5.63302L21.0841 9.8151Z" fill="#B6FFF9"/>
<path d="M21.0841 9.81506L18.9219 11.0668L22.8764 15.3912L23.9575 12.7454L21.0841 9.81506Z" fill="#00A5EC"/>
<path d="M22.8766 15.3912L28.9079 13.7696L27.7699 12.0626L23.9577 12.7454L22.8766 15.3912Z" fill="#00DCFF"/>
<path d="M28.7086 8.44952L28.9078 13.7696L27.7698 12.0626L28.7086 8.44952Z" fill="#00A5EC"/>
<path d="M20.7712 5.63306L18.8936 6.03135L18.922 11.0669L21.0842 9.81513L20.7712 5.63306Z" fill="#00DBFF"/>
<path d="M22.8764 15.3912L19.2349 14.7084L18.9219 11.0668L22.8764 15.3912Z" fill="#105BC4"/>
<path d="M23.9575 12.7454L24.8109 4.80798L28.7085 8.44952L27.7697 12.0626L23.9575 12.7454Z" fill="#7CFFF9"/>
<path d="M30.8709 33.0299L33.2891 35.4765L36.5038 34.9075L37.272 31.8919L34.0003 28.8193L30.6148 29.5306L30.8709 33.0299Z" fill="#B6FFF9"/>
<path d="M30.8708 33.0299L29.0785 34.0541L32.3786 37.6956L33.289 35.4766L30.8708 33.0299Z" fill="#00A5EC"/>
<path d="M32.3785 37.6956L37.4425 36.3585L36.5037 34.9075L33.2889 35.4765L32.3785 37.6956Z" fill="#00DCFF"/>
<path d="M37.272 31.8919L37.4427 36.3585L36.5038 34.9076L37.272 31.8919Z" fill="#00A5EC"/>
<path d="M30.6148 29.5306L29.05 29.872L29.0785 34.0541L30.8708 33.0299L30.6148 29.5306Z" fill="#00DBFF"/>
<path d="M32.3786 37.6956L29.3345 37.1266L29.0785 34.0541L32.3786 37.6956Z" fill="#105BC4"/>
<path d="M33.2889 35.4765L34.0001 28.8193L37.2718 31.8919L36.5037 34.9075L33.2889 35.4765Z" fill="#7CFFF9"/>
<path d="M4.66881 10.8108L25.124 14.68L25.4654 16.2731L0.714355 11.4367L2.70582 10.441L4.66881 10.8108Z" fill="#FFDDFF"/>
<path d="M0.714355 11.4367L25.4654 16.2731V21.2802L1.36867 16.6145L0.714355 11.4367Z" fill="#FFB0DC"/>
<path d="M17.5848 25.8037C17.5848 23.4993 15.7356 21.2802 13.4881 20.825C11.2405 20.3698 9.39136 21.8777 9.39136 24.1821C9.39136 26.4865 11.2405 28.7056 13.4881 29.1607C14.5407 29.3599 15.508 29.1607 16.2761 28.5918C16.4184 28.478 16.4468 28.2504 16.3046 28.0512C16.1623 27.8805 15.9347 27.8236 15.7925 27.909C15.1666 28.3642 14.3416 28.5349 13.5165 28.3642C12.5208 28.165 11.6389 27.5391 11.013 26.7425L12.7768 24.2959V25.6046C12.7768 26.2304 13.0329 26.4865 13.232 26.5718C13.4312 26.6572 13.7441 26.6856 14.0855 26.2304L15.0528 24.8649C15.0812 24.8364 15.1097 24.7795 15.1381 24.7511V25.5477C15.1381 26.1166 15.3657 26.6572 15.764 26.9417C16.1339 27.2262 16.5891 27.2831 16.9589 27.1408C17.3572 26.9417 17.6132 26.458 17.5848 25.8037ZM16.5322 26.4011C16.3899 26.458 16.2192 26.4296 16.077 26.3442C15.9063 26.202 15.8209 25.9744 15.8209 25.6899V24.7795C15.8209 24.3528 15.6502 23.9829 15.3658 23.8691C14.8821 23.6131 14.5123 24.1536 14.37 24.3528L13.4881 25.5761V23.8691C13.4881 23.4708 13.3458 23.2148 13.1182 23.101C12.9475 23.0157 12.7199 22.9872 12.4923 23.3001L10.5578 26.0313C10.3017 25.4908 10.1595 24.9218 10.1595 24.3528C10.1595 22.4751 11.6673 21.2518 13.5165 21.6216C15.3658 21.9915 16.8736 23.8122 16.8736 25.6899C16.8736 26.0313 16.7598 26.3158 16.5322 26.4011Z" fill="white"/>
<path d="M30.6717 5.91746L34.3417 7.51063L37.2435 6.6287L35.2805 4.49498L31.2407 3.07251L28.538 3.49925L30.6717 5.91746Z" fill="#FF8EDC"/>
<path d="M30.6717 5.91748L28.7656 7.56755L34.0856 9.67281L34.3417 7.51065L30.6717 5.91748Z" fill="#BB2876"/>
<path d="M34.3416 7.51066L37.2435 6.62872L37.9547 8.93313L34.0287 10.128L34.3416 7.51066Z" fill="#FF62AA"/>
<path d="M28.5378 3.49933L26.6317 4.49506L28.7654 7.56761L30.6715 5.91754L28.5378 3.49933Z" fill="#FF62AA"/>
<path d="M28.7656 7.5675L29.4199 13.5988L34.0856 9.67277L28.7656 7.5675Z" fill="#722876"/>
<path d="M26.6317 4.495L29.4197 13.5988L28.7654 7.56754L26.6317 4.495Z" fill="#BA4EA2"/>
<path d="M37.9545 8.93311L29.4197 13.5988L34.0854 9.67279L37.9545 8.93311Z" fill="#BA4EA2"/>
<path d="M28.538 3.49925L37.2435 6.6287L35.2805 4.49498L31.2407 3.07251L28.538 3.49925Z" fill="#FFC3DC"/>
<path d="M25.4654 21.2803L39.7755 12.2049L40.1453 6.88483L25.4654 16.2732V21.2803Z" fill="#651B4F"/>
<path d="M37.1867 7.62451L25.1241 14.68L25.4655 16.2732L40.1454 6.88483L37.1867 7.62451Z" fill="#FFB0DC"/>
<path d="M5.28101 16.6342C6.11001 16.5552 6.70106 15.6415 6.60114 14.5935C6.50122 13.5456 5.74817 12.7601 4.91917 12.8391C4.09017 12.9182 3.49915 13.8318 3.59907 14.8798C3.69899 15.9278 4.45201 16.7132 5.28101 16.6342Z" fill="#BB2876"/>
<path d="M4.29913 12.9161L4.92501 12.8592L5.12418 16.6145L4.35602 16.6999L4.29913 12.9161Z" fill="#BB2876"/>
<path d="M4.5128 16.6913C5.3418 16.6123 5.93285 15.6987 5.83293 14.6507C5.73301 13.6027 4.97996 12.8172 4.15095 12.8963C3.32195 12.9753 2.7309 13.8889 2.83082 14.9369C2.93074 15.9849 3.68379 16.7704 4.5128 16.6913Z" fill="#FFDDFF"/>
<path d="M10.8007 17.6871C11.6297 17.6081 12.2207 16.6944 12.1208 15.6465C12.0209 14.5985 11.2678 13.813 10.4388 13.892C9.60982 13.9711 9.01881 14.8847 9.11873 15.9327C9.21865 16.9807 9.97166 17.7662 10.8007 17.6871Z" fill="#BB2876"/>
<path d="M9.81812 13.9403L10.444 13.8834L10.6431 17.6671L9.875 17.724L9.81812 13.9403Z" fill="#BB2876"/>
<path d="M10.0327 17.7443C10.8617 17.6653 11.4527 16.7516 11.3528 15.7037C11.2529 14.6557 10.4999 13.8702 9.67085 13.9492C8.84185 14.0283 8.2508 14.9419 8.35072 15.9899C8.45064 17.0379 9.20369 17.8233 10.0327 17.7443Z" fill="#FFDDFF"/>
<path d="M16.3211 18.7401C17.1501 18.6611 17.7411 17.7474 17.6412 16.6994C17.5413 15.6515 16.7882 14.866 15.9592 14.945C15.1302 15.0241 14.5392 15.9377 14.6391 16.9857C14.739 18.0337 15.4921 18.8191 16.3211 18.7401Z" fill="#BB2876"/>
<path d="M15.3375 14.9929L15.9634 14.936L16.1626 18.7198L15.3944 18.7767L15.3375 14.9929Z" fill="#BB2876"/>
<path d="M15.5528 18.7973C16.3818 18.7182 16.9729 17.8046 16.8729 16.7566C16.773 15.7087 16.02 14.9232 15.191 15.0022C14.362 15.0812 13.7709 15.9949 13.8709 17.0429C13.9708 18.0908 14.7238 18.8763 15.5528 18.7973Z" fill="#FFDDFF"/>
<path d="M21.8381 19.7648C22.6671 19.6857 23.2581 18.7721 23.1582 17.7241C23.0583 16.6761 22.3053 15.8906 21.4763 15.9697C20.6473 16.0487 20.0562 16.9623 20.1561 18.0103C20.2561 19.0583 21.0091 19.8438 21.8381 19.7648Z" fill="#BB2876"/>
<path d="M20.8564 16.0455L21.4824 15.9886L21.6815 19.7724L20.9134 19.8293L20.8564 16.0455Z" fill="#BB2876"/>
<path d="M21.0698 19.8219C21.8988 19.7429 22.4898 18.8293 22.3899 17.7813C22.29 16.7333 21.5369 15.9478 20.7079 16.0269C19.8789 16.1059 19.2879 17.0195 19.3878 18.0675C19.4877 19.1155 20.2408 19.901 21.0698 19.8219Z" fill="#FFDDFF"/>
<path d="M30.6717 5.91748C29.7613 6.31577 28.7941 7.56755 28.7941 7.56755C29.6191 7.08391 30.6717 5.91748 30.6717 5.91748Z" fill="#FFC3DC"/>
</svg>
